<?xml version="1.0" encoding="UTF-8"?>
<svg id="Layer_1" data-name="Layer 1" xmlns="http://www.w3.org/2000/svg" version="1.1" viewBox="0 0 268.6 107.8">
  <defs>
    <style>
      .cls-1 {
        fill: #fe3131;
      }

      .cls-1, .cls-2, .cls-3, .cls-4, .cls-5, .cls-6, .cls-7, .cls-8, .cls-9, .cls-10, .cls-11, .cls-12, .cls-13 {
        stroke-width: 0px;
      }

      .cls-2 {
        fill: #23ab5c;
      }

      .cls-3 {
        fill: #07bb61;
      }

      .cls-4 {
        fill: #1dae5d;
      }

      .cls-5 {
        fill: #fede2b;
      }

      .cls-6 {
        fill: #14b35f;
      }

      .cls-7 {
        fill: #00be63;
      }

      .cls-8 {
        fill: #9b6844;
      }

      .cls-9 {
        fill: #29a75b;
      }

      .cls-10 {
        fill: #2da55a;
      }

      .cls-11 {
        fill: #b8583f;
      }

      .cls-12 {
        fill: #18b15e;
      }

      .cls-13 {
        fill: #01be62;
      }
    </style>
  </defs>
  <path class="cls-5" d="M20.5,0c6.4.1,11.9,2.1,15.8,7.6,1.3,1.8,2,3.9,2.5,6.1.2,1,0,1.6-1.2,1.7-3.2.2-6.3.4-9.5.6-.7,0-1.1-.3-1.3-1-.1-.6-.3-1.2-.5-1.8-.9-2.8-2.5-4.1-4.9-4.2-2.9-.1-4.9,1-6.1,3.6-1.5,3.1-1.5,6.4-1.5,9.6s.1,4.4.7,6.6c.7,2.6,1.9,4.9,4.7,5.4,3.1.6,6,0,8.2-2.6.8-.9,1.5-2,1.9-3.1s1.1-1.4,2.2-1.2c2,.4,4,.7,6,1.2,1.8.4,2.2,1,1.5,2.9-1.5,4.4-4.3,7.8-8.4,10-10.8,5.9-26.8,2-30-14.1C-.6,20.9-.2,14.7,3.2,9.1,7.1,2.6,13.2.2,20.5,0Z"/>
  <path class="cls-5" d="M182.1,37.4c-2.3.8-4.6,1.5-6.8,2.8-1.4.9-2.4,2.3-3.7,3.3-.6.4-1.3.5-2.1.5h-7.8c-.7,0-1.4,0-2.1-.5-3.6-1.6-7.3-3.1-11.4-2.6V2.6c0-1.3.4-1.9,1.8-1.9h29.8c1.3,0,1.8.5,1.7,1.8v5.5c0,1.5-.6,2.2-2.2,2.2h-15.8c-2,0-2.2.2-2.2,2.2,0,5.8-.7,5,5,5.1h5.7c1.6,0,2.1.5,2,2-.1,1.8,0,3.6,0,5.3s-.4,1.9-1.8,1.9h-8.8c-1.5,0-2.2.5-2,2.1v3.7c-.1,1.4.5,1.8,1.8,1.8h15.5c3.8,0,3.4-.2,3.4,3.4v-.3Z"/>
  <path class="cls-5" d="M249.1,15c.7-.3.9-1,1.2-1.6,2.1-3.8,4.2-7.6,6.2-11.4.5-1,1.2-1.5,2.4-1.4h8.2c1.8,0,2,.4,1,1.9-4.1,6.7-8.3,13.4-12.4,20.1-.9,1.4-1.3,2.8-1.2,4.4v14.2c0,1.6-.6,2.2-2.2,2.2h-9c-1.5,0-1.9-.6-1.9-2v-13.5c0-1.6-.4-2.9-1.2-4.2-4.1-6.7-8.2-13.3-12.3-20-.3-.5-.6-.9-.8-1.4-.5-1.1-.2-1.6,1-1.6h11.8c1,0,1.4.7,1.9,1.4,2.1,3.8,4.2,7.7,6.4,11.5.3.5.4,1.2,1,1.5h-.1Z"/>
  <path class="cls-5" d="M141.4,2.6c0-1.5-.4-2.1-2-2h-14.5c-1.7,0-2.5.6-3,2.2-1.6,5.4-3.2,10.7-4.9,16.1-.2.5,0,1.1-.7,1.4-.5-.4-.6-.9-.7-1.4-1.8-5.5-3.6-11-5.4-16.4-.3-1-.7-1.8-2-1.8h-15.7c-1.1,0-1.6.5-1.6,1.6v39.2c0,1.5.7,2.1,2.2,2,1.7,0,3.3-.2,5,0,.9-.4,1.9-.4,2.8-.2.6-.7.4-1.5.4-2.2v-23c0-.6-.2-1.3.3-2,.6.4.6,1.1.8,1.7,2.5,7.7,5,15.4,7.4,23.1.6,1.8,1.4,2.6,3.3,2.4,1.1,0,2.2,0,3.3,0,1.8.2,2.6-.6,3.1-2.3,2.4-7.8,4.9-15.6,7.4-23.3.2-.7.2-1.5.9-2.1.5.6.3,1.2.3,1.8v23.5c0,2.2.1,2.4,2.4,2.4h9.7c.3,0,.6,0,.7-.3.3-.7.3-1.4.3-2.1V2.7h.2Z"/>
  <path class="cls-5" d="M221.8,7c-4.3-4.4-9.8-6-15.7-6.3-5.3-.3-10.7-.1-16-.1s-2.5,0-2.5,2.5v34.3c3.9,1.1,7.6,2.5,10.1,6,2.9,0,5.9,0,8.8,0,3.9-.2,7.7-1.1,11.1-3,6-3.5,8.9-9,9.6-15.7.6-6.5-.6-12.6-5.4-17.5h0ZM212.9,27.1c-.9,3.7-3.9,6.4-8,6.9-5.3.7-4.1.5-4.2-3.5V11.2c0-1.1.3-1.6,1.5-1.5,1.4,0,2.9.2,4.3.5,4,.9,6,3.7,6.8,7.5.6,3.2.4,6.3-.3,9.4h-.1Z"/>
  <path class="cls-5" d="M85.1,19.6c-.7-11.6-9-19.6-20.6-19.6s-16.3,4.7-19.2,12.9c-2,5.6-2,11.3-.4,17,1.7,5.9,5.3,10.2,11.1,12.4,4.8,1.9,9.9,2,14.9.7,6-1.6,10.1-5.4,12.5-11.1,1.6-4,1.9-8.1,1.7-12.4h0ZM70.6,30.2c-.8,3.3-2.9,4.8-6.1,4.8s-5.3-1.6-6.2-4.8c-.3-1-.5-1.9-.6-2.9-.2-1.7-.2-3.3-.2-5,0-2.8,0-5.6.9-8.3.9-3.4,3-5.1,6.1-5.1s5.3,1.5,6,4.9c1.3,5.4,1.4,10.9,0,16.3h0Z"/>
  <path class="cls-1" d="M207.2,86.2c1.1,0,1.9-.2,2.8-.3-.8-1.2-2.4-1.5-2.5-2.8-.3-2.3-1.2-4.4-1.9-6.5-.7-2.6-1-5.2-1.1-7.9,1.6-.2,3-.4,4.7-.6-1.2-1-2.4-1.7-3.1-2.7-.8-1.1.7-2.3.3-3.5q-1.5.2-1.9-1.3c-.4-1.6-1.4-2.4-3-2.7-1.3-.3-2.5,0-3.9,0,2.7-3,2.8-6.3,1.7-10-.5-1.6-1.2-3-1.8-4.5-1-1.9-2.6-3.2-4.2-4.5-.2,0-.4-.2-.6-.2-1,0-1.9-.5-2.8-.9-.8-.3-1.5-.7-2.4-.4h-4.9c-.6,0-1.2,0-1.8.2-3.6.9-6.5,2.9-8.9,5.7,0,0-.1,0-.2.2h.5c-4.4,5.1-5.9,11.1-5.6,17.7-.9.3-1.8.2-3,.2,1.4-1.3,1.9-2.8,2.3-4.4.3-1,.3-2,.1-2.9-.8-3.4-1.5-6.9-4.6-9.1-.5-.3-.8-.9-1.1-1.4h.4c-.1,0-.3-.3-.4-.4-3-1.3-5.9-2.7-9.2-2.8-.8,0-1.6-.2-2.2.5-2.2.6-4.3,1.3-6.3,2.3-.4,0-.7,0-1,.2h-.2c.1,0,.3,0,.4,0h0c-2,1.7-3.9,3.6-5.4,5.8-2.6,3.8-3.7,8.1-3.9,12.6v4.1c-.8.4-1.1-.2-1.3-1-.6-2.3-1.1-4.5-1.8-6.8-1-3.5-2.8-6.6-5.1-9.5-3.7-4.6-9.5-5.5-14.7-2.3-2.7,1.6-4.8,3.7-5.9,6.7,0,.5-.2,1.1-.4,1.6h0c0,.5-.3.9-.4,1.4-.2-.6-.4-1.1,0-1.6,0-.7,0-1.4.3-2.1,0-1.1.3-2.2.7-3.2,1-2.9.7-3.9-1.6-5.7,0,0,0-.2.2-.3-1.1-.3-2.1-.6-3,.4-3.1,1.7-4.8,4.6-6,7.7-2.5,6.4-3.2,13.1-4.1,19.8-.4,2.8-.7,5.5-1.1,8.3-.4,0-.5-.2-.6-.3-1.8-4.1-3.6-8.2-5-12.5-1.1-3.2-2.1-6.4-4-9.3-3.7-5.3-10-5.2-13.3.3-.6,1-1.1,2.2-1.5,3.3-1.3,3.7-2.1,7.6-2.8,11.5v.7h0c.2,0,0,0,0,0h0c-.4-.3-.7-.6-.6-1.1h0c-1.8-6.3-2.9-12.9-6.5-18.5-1.7,1-3.2-.5-5-.5-.4.6-.8,1.5-1.7,1.2-1.7-.4-3,.5-4.4,1.1-4,1.8-5.5,5.7-4.1,9.8.4,1.2,1.5,1.2,1.8,2.1,1,2.2,2.6,4.1,2.5,6.8.4.3,1.1,0,1.4.7,1.2,2.6,2.8,4.9,3.6,7.6,1.6,5.3,3.3,10.5,5.8,15.4.5,1.1,1.3,2.2,2.4,2.4,2.4.4,4,2.8,7,2-1.7,2-1.8,3.4-.6,4.5.9.9,2.4.8,3.3,0,1.1-1.1,1-2.4-.4-4.1.6-1,1.2-.9,2-.2,1,.8,2.2.7,3.3,0,1-.6,1.5-1.5,1.4-2.6,0-1.3-.9-2.1-2.1-2.5-.3,0-.5-.2-.9-.3,2.9-6.2,2.9-13,4.5-19.9,1.6,4.6,3.7,8.6,5.3,12.7-2.3,1.2-3.1,2.7-2.4,4.4.8,1.7,3,2.3,5.2,1.3,1.9,2.6,2.6,6.5,6.6,7.1,0,1.3,0,1.7,1.3,2.4,2.7,1.5,4.5-.4,6.6-1.9,1.3,3.3,3.5,5.3,7.1,4.6,1.8-.3,2.9-1.8,3.4-3.4.9-2.5.3-4.9-2.1-6.5,1.2-.7,1.9.6,2.9.5,1.2-.8,1.5-3.3,3.6-2.1,2.7-3.7,4-7.9,4.1-12.4,1.6-.3,3-.5,4.6-.7,1.4,7.8,5,14.7,8.8,21.6.3-.6.6-1.2.8-1.8,2.3.5,3.6,2.2,5,3.8.1-.5.2-.8.3-1.3.9,1.3,2.3,1.2,3.4,1.8.3-.8-.7-1.2-.5-2,.9.4,1.7.9,2.6,1.4-.3-1.5-1.3-2.6-1.5-3.2.3-2.3,2-2.4,3.2-3.2-.8-.8-2.6-.6-1.9-2.4,1.5-.2,2.9-.4,4.8-.6-1.3-.7-2.2-1.3-3.2-1.7-2.4-.9-3.8-2.7-4.7-5-1.4-3.5-2.3-7.2-3.1-10.9-.2-1.1.3-1.3,1.1-1.5,1.2,3.3,2.9,6.2,5.1,8.8,3.5,4.1,7.8,6.2,13.3,5.8,3.6-.3,6.6-1.7,9.1-4.6,2.3,3.6,6.1,4.2,9.4,5.5.1-.5-.5-.6,0-1,1.2.6,2.3,1.2,3.8,1.9-.6-2-1.9-3.1-2.6-4.8.9-.2,1.7-.3,2.6-.5-.6-1.2-2.3-1.4-2.5-2.8-.2-1.8-.8-3.6-1.4-5.5,3.1,3.8,6.4,7.3,11.5,8.1,5.1.8,9.6-.3,13.3-4.4,2.2,3.6,5.9,4.1,9.1,5.4.4-.4-.3-.7.2-1,1.3.7,2.5,1.3,3.8,2,0,0,.1,0,.2-.2-.9-1.5-1.9-3-2.9-4.7h0ZM99.2,97.3c0-.9.5-.7,1.1-.5-.3.5-.6.6-1.1.5ZM116.5,70.3c0-1.1,0-2.2.4-3.5.5,2.3.4,3.4-.4,3.5ZM146.7,65.4c-.9-3.1.1-6.7,2.5-8.9,1.6,2,3.3,3.8,5.4,5.6-3,.8-6.2,0-7.9,3.2h0ZM155.3,77.8c-1.3.3-1.4,2.3-3,1.8-.9-.2-1.4-.8-2-1.4-.8-1-1.5-2-1.9-3.5,2.2,1.1,4.4.8,6.8.8-.2.9,1.1,2.1,0,2.4h0ZM180.7,61.7c-.3-2.6-.2-5.1,1.2-7.4.9-1.4,1.5-1.5,2.4,0,1.1,1.6,2.8,2.8,4.3,4.5-2.8.9-6.1,0-7.9,3ZM189.4,74.3c-3,2.2-3.5,2.2-4.9.5-.8-1-1.6-2-1.9-3.5,1.2.3,2.2.7,3.4.7h3.3c.1.8,1.1,1.6.2,2.3h-.1Z"/>
  <path class="cls-7" d="M50.2,55.8c3.3.9,4.6,3.4,5.3,6.2,1.7,6.2,3.3,12.4,5.3,18.5.2.5.3.9.5,1.4h.3c.3-1.6.6-3.1.9-4.7.9-5,1.8-10,3.3-14.9.5-1.6,1.2-3.1,2.2-4.4,2.1-2.7,5.2-3,7.7-.8,1.5,1.4,2.4,3.2,3.1,5,2.1,5.7,4.1,11.5,6.7,17,1.3,2.7,2.5,5.4,3.9,8.4.7-1.4.6-2.6.8-3.8,1.3-8.9,1.9-17.9,4-26.6.8-3.5,1.9-6.9,4.3-9.6.4-.5.9-1,1.4-1.4s1.1-.8,1.7-.5c.6.4.9,1.3.7,1.9-2.3,6.8-1.3,13.9-2.1,20.8-1,9.1-1.1,18.3-3,27.3-.6,2.5-1.2,5.1-3.5,6.8-.6.4-1.3.9-2.1.7,0-.6.7-.7.6-1.3-3.4-1.1-5.9-3-7.7-6.5-4.1-8.1-7.6-16.4-10.6-24.9-.2-.7-.3-1.4-.9-2-1.1,6.8-2.3,13.5-3.4,20.2-.6,4-2,7.6-4.1,10.9,0,.2-.5.5-.6.5-1.4-.9-3.4.9-4.7-.8h-.2c-3.4-.5-4.6-3-5.6-5.8s-2.2-5.4-2.9-8.3c-1.4-5.7-4.6-10.6-7.2-15.8s-1.8-3.4-3-5c-1.6-2.2-.4-4.9,2.2-6.4,1.6-.9,3.3-1.6,5.2-1,1,.3,1.1-.4,1.4-1h0Z"/>
  <path class="cls-7" d="M197.1,79.9c-3.3,6.9-9.3,8-14.1,6.8-3.9-1-6.7-3.7-8.7-7.1-4.8-7.8-6.4-16.4-4.9-25.4s4.4-10.9,10.2-13.4c3.2-1.4,6.6-1.5,10-.3,3,1.1,5,3,6.7,5.4,2.1,3,2,7.7-.4,10.5-1.2,1.4-4.1,1.8-5.6.5-1.6-1.3-3.1-2.7-4.3-4.3-.2-.3-.4-.7-.5-1-.5-1.7-1.1-2-2.7-1.1-2.8,1.5-4.1,4.1-4.4,7-.7,6.4.4,12.6,3.9,18.1,1,1.6,2.4,2.7,4.5,2.8,2.2,0,3.7-.9,4.7-2.8.9-1.8,1.4-3.7,1.7-5.7-.4-.5-.8-.3-1.3-.3h-6.2c-2.9,0-4-2.9-3.5-5.2.4-2.3,2-2.9,4-3.1,4.3-.4,8.5-.9,12.8-1.3,3.1-.3,3.9.6,3.6,3.7,0,.3-.2.7,0,.9.9.7,1.1,1.2,0,2.1-.5.4-.4,1.8-.3,2.7.2,3.8.9,7.5,2.3,11,.5,1.4.9,2.7-.4,4-.9,1-2.4,1.4-3.5.8-1.2-.7-1.9-1.7-2.4-2.9-.4-.8-.8-1.7-1.2-2.6v.2Z"/>
  <path class="cls-13" d="M102,99.1c1.7,0,3.2,1.7,3.2,3.4s-1.7,3-3.6,3-2.7-1.9-2.7-3c0-2,1.3-3.4,3.1-3.4Z"/>
  <path class="cls-2" d="M121.9,80.7c.3,0,.7-.6.8,0,.5,2.3,1.4,4.4,1.5,6.8,0,0,0,0,0,.2h0c0,.3-.2.4-.5.5-1-2.4-1.5-4.9-1.9-7.4h0Z"/>
  <path class="cls-6" d="M132.5,99.7c.8.4,1.6.9,2.3,1.3-1.7.7-3.3.5-4.7-.6.7,0,.5-.3.2-.7-.5-.6-1.2-1.2-.5-2.1.8,0,.5.8.8,1.1.5.6,1.2,1,1.5,1.7,0-.2,0-.5.3-.7h0Z"/>
  <path class="cls-9" d="M126.5,94.7c1,.9,1.9,1.9,1.6,3.4-.9-1-1.6-2-1.6-3.4Z"/>
  <path class="cls-12" d="M79.8,93.8c-.5,0-.9-.2-1-.7,0-.6.4-.9,1-.9s.7.3.7.7-.2.8-.7.9Z"/>
  <path class="cls-10" d="M70.1,100c0,.4-.4.5-.7.6-.3,0-.5,0-.6-.4,0-.4.2-.6.6-.7.4,0,.6.2.7.5Z"/>
  <path class="cls-11" d="M125.1,90.4c.5.7.8,1.5.6,2.4,0-.3-.3-.7-.4-1-.6-.4-.5-.9-.2-1.4Z"/>
  <path class="cls-3" d="M125.1,90.4c0,.5,0,.9.2,1.4-.9-.2-.7-1.2-1.1-1.7.5-.2.7,0,.9.4h0Z"/>
  <path class="cls-8" d="M125.2,90.4c-.3,0-.6-.3-.9-.4-.2-.3.2-.4.2-.6,0,0,0,0,0-.2h0c0,0,.3,0,.4,0,.3.4.5.8.4,1.4h0Z"/>
  <path class="cls-4" d="M124.5,89v.3c-.7,0-.7-.7-.7-1.2,0,0,.2-.3.3-.4.2.4.4.8.4,1.3Z"/>
  <path class="cls-7" d="M170.7,84.4c-.9-2.1-1.6-4.2-1.9-6.5-.2-1.3-.3-2.5-.4-3.8-.2-1.3-.6-3.2.3-3.8,2.1-1.4-1.2-2.1-.1-3.1,0,0,.1-.2.1-.3,0-2.8-.7-3.5-3.6-3.3-4.6.4-9.2.9-13.7,1.4-2.3.2-3.6,1.8-3.5,4.1,0,2.2,1.2,3.7,3.3,4.1,1.1.2,2.2,0,3.3,0h4.7c-.3,1.2-.5,2.2-.8,3.3-.2.8-.5,1.6-.9,2.3-1.6,3.5-5.6,4.2-8.3,1.4-1.1-1.1-1.9-2.3-2.5-3.7-2-4.7-3-9.6-2.5-14.8.3-3.3,1.5-6.3,4.7-7.9,1.5-.7,2-.4,2.5,1.1.1.5.4.9.7,1.3,1.1,1.6,2.6,2.9,4.1,4.1,1.6,1.4,4.6.9,5.9-.8,2.1-2.8,2.2-7.4.1-10.2-1.7-2.3-3.6-4.2-6.4-5.3-5.2-2-9.9-.9-13.9,2.4-5.2,4.2-7.3,10.1-7.2,16.8,0,2.8.6,5.6.8,8.5-.7,0-1.5.4-1.7-.6-.5-2.4-1.5-3.1-4-2.5-.5-.8-.6-1.8-.8-2.7-1.2-5.2-2.4-10.3-5.7-14.8-2.8-3.8-5.4-4.9-10-3.8-4,1-6.7,3.3-7.8,7.3-.5,2-1,4-1.2,6-.9,7.2-.6,14.5-2.9,21.5-.9,2.7-1,5.7-2.8,8.1-.3.4-.3.9,0,1.4.5,1.9,2.2,3.5,4.1,3.6,2.2,0,4.3.3,6.3-1.4,1.7-1.4,2.9-2.9,3.4-5,.5-2.3.8-4.7,1.1-7.1,2.8-.2,5.5-1.1,8.2-1.1.5.3.6.7.7,1.2.4,1.8.9,3.6,1.3,5.4.3.5.3,1.2.6,1.7.3.4.3.8.4,1.3,0,0,0,.3,0,.4.3.7.8,1.3.7,2,.2.7.5,1.3.7,2,.6,1.1,1.3,2.2,1.6,3.4.4,1,1.1,1.7,2,2.3.6.3.9,0,.7-.5-.1-.5-.6-.8-.7-1.4.2,0,.3.3.5.5.5.5,1,.9,1.7,1.2.8.6,1.7.7,2.5.9,1.3.3,1.8-.4,2.2-1.5.6-1.4.9-2.9.2-4.2-2.9-5-4.2-10.5-5.5-16-.3-1.4-.2-2.2,1.3-2.8,1.2-.5,2.8-1.1,2.2-3.1,0-.2.4-.5.8-.4.9,3.3,2,6.6,3.8,9.5,2.4,3.7,5.3,6.8,9.8,7.7,4.6.9,10.3-.3,13.4-6.9.4.9.8,1.8,1.2,2.6.5,1.2,1.2,2.2,2.4,2.9,1,.5,2.4.6,3.1,0,1.1-1.1,1.8-2.6,1-4.4h.4ZM114.1,73.3c.3-5.4.5-10.5,1.8-15.5,2.7,4.4,3.4,9.2,4.4,14.2-2.1.4-4,.9-6.2,1.3Z"/>
</svg>